<svg id="Layer_1" enable-background="new 0 0 512 512" viewBox="0 0 512 512" xmlns="http://www.w3.org/2000/svg"><g id="Layer_2_1_"><g id="Layer_1-2"><g id="G"><circle cx="256" cy="256" fill="#05c653" r="255.9"/><path d="m493.1 350.1-142.9-197.1-119.6-3.3-67.7 178.3 70.9 182.8s5.7 1.1 21.2 1.1c108.1 0 201.5-66.5 238.1-161.8z" fill="#0b9f3f"/><path d="m280.1 293.5c-11.3 0-18.8-7.5-18.8-18.8v-14.7c0-11.3 7.5-18.8 18.8-18.8h57.6c11.3 0 18.8 7.5 18.8 18.8v126.6c0 11.3-7.5 18.8-18.8 18.8h-21.5c-11.3 0-18.8-7.9-18.8-20.7-7.9 13.2-23.7 23.7-53.1 23.7-50.8 0-89.3-54.6-89.3-153.7 0-96.4 29-151 107.7-151 64.8 0 94.2 42.6 94.2 79.5 0 10.2-3.8 19.2-16.2 19.2h-24.9c-10.9 0-19.2-6-20.7-15.8-2.6-18.8-8.3-33.5-31.3-33.5-31.6 0-40.7 38.4-40.7 101.7 0 65.2 9 102.8 41.4 102.8 27.5 0 32.8-22.6 32.8-64z" fill="#fff"/></g></g></g></svg>